<?xml version="1.0" standalone="no"?><!DOCTYPE svg PUBLIC "-//W3C//DTD SVG 1.1//EN" "http://www.w3.org/Graphics/SVG/1.1/DTD/svg11.dtd"><svg class="icon" width="128px" height="128.00px" viewBox="0 0 1024 1024" version="1.1" xmlns="http://www.w3.org/2000/svg"><path fill="#333333" d="M151.557 1023.92A120.75 120.75 0 0 1 28.476 906.185V117.817A120.806 120.806 0 0 1 151.728 0.139h104.255a27.926 27.926 0 1 1 0 55.853H151.785a64.384 64.384 0 0 0-66.432 61.882v788.368a64.328 64.328 0 0 0 66.375 61.825h720.855a64.27 64.27 0 0 0 65.92-61.825V117.874a64.27 64.27 0 0 0-66.318-61.825H779.25a27.926 27.926 0 1 1 0-55.853h102.378a29.405 29.405 0 0 1 8.36 1.308 119.782 119.782 0 0 1 105.45 116.313v788.368a120.75 120.75 0 0 1-123.024 117.735zM228 795.674a27.926 27.926 0 1 1 0-55.853h567.97a27.926 27.926 0 1 1 0 55.853z m0-169.266a28.836 28.836 0 0 1 0-57.616h567.97a28.836 28.836 0 0 1 0 57.616z m111.25-140.997v-63.133H228.568a27.244 27.244 0 1 1 0-54.147H339.25v-54.146H228.568a27.244 27.244 0 1 1 0-54.147h47.89l-49.084-44.023a25.196 25.196 0 0 1 0-38.278 32.704 32.704 0 0 1 42.657 0l91.856 82.358h15.243l91.8-82.358a32.704 32.704 0 0 1 42.657 0 25.083 25.083 0 0 1 0 38.278l-49.028 44.023h47.833a27.244 27.244 0 1 1 0 54.147H399.71v54.146h110.682a27.244 27.244 0 1 1 0 54.147H399.71v63.133a30.372 30.372 0 0 1-60.403 0z m346.152-30.884a28.04 28.04 0 1 1 0-55.853h109.772a28.04 28.04 0 1 1 0 55.853z m0-113.355a28.04 28.04 0 1 1 0-55.853h109.772a28.04 28.04 0 1 1 0 55.853zM369.736 56.049a27.926 27.926 0 1 1 0-55.853h303.551a27.926 27.926 0 1 1 0 55.853z" /></svg>