<?xml version="1.0" standalone="no"?><!DOCTYPE svg PUBLIC "-//W3C//DTD SVG 1.1//EN" "http://www.w3.org/Graphics/SVG/1.1/DTD/svg11.dtd"><svg class="icon" width="128px" height="128.00px" viewBox="0 0 1024 1024" version="1.1" xmlns="http://www.w3.org/2000/svg"><path fill="#333333" d="M676.75 1021.724c-21.333 0-45.17-2.446-70.428-5.12-60.246-6.2-128.512-6.2-188.7 0-25.26 2.674-49.096 5.12-70.43 5.12-22.698 0-55.58-2.446-79.132-23.836-20.878-18.944-31.004-49.038-31.004-91.99V503.013c0-161.224 132.892-161.224 273.636-161.224 143.416 0 276.366 0 276.366 161.224v402.887c-0.057 103.822-62.92 115.825-110.308 115.825zM512 967.566c35.328 0 69.006 3.527 98.816 6.6 24.235 2.56 46.421 4.892 65.991 4.892 45.796 0 67.584-10.923 67.584-73.16V503.013c0-113.266-79.246-118.557-231.026-118.557-154.396 0-233.585 5.29-233.585 118.557v402.887c0 30.265 5.575 50.005 17.01 60.416 17.18 15.53 61.61 13.71 116.45 7.907 29.697-3.186 63.432-6.656 98.76-6.656z"  /><path fill="#333333" d="M702.805 379.221H660.14v-66.56c0-86.528-66.447-156.956-148.139-156.956-81.692 0-148.139 70.428-148.139 156.956v66.56h-42.666v-66.56c0-110.023 85.56-199.623 190.805-199.623s190.805 89.543 190.805 199.623v66.56z"  /><path fill="#333333" d="M597.39 158.094h-42.666c0-55.978-5.007-113.152-42.098-113.152-37.092 0-42.098 57.174-42.098 113.152h-42.667c0-46.649 0-155.818 84.765-155.818 84.764 0 84.764 109.17 84.764 155.818zM560.299 569.913h194.673v42.667H560.3v-42.667zM555.861 665.884h194.617v42.667H555.861v-42.667zM560.299 761.913h194.673v42.667H560.3v-42.667z"  /></svg>