<?xml version="1.0" standalone="no"?><!DOCTYPE svg PUBLIC "-//W3C//DTD SVG 1.1//EN" "http://www.w3.org/Graphics/SVG/1.1/DTD/svg11.dtd"><svg class="icon" width="128px" height="128.00px" viewBox="0 0 1024 1024" version="1.1" xmlns="http://www.w3.org/2000/svg"><path fill="#333333" d="M770.47 292.2h-83.26v-37.16c0-39.72-32.31-72.03-72.03-72.03H408.82c-39.72 0-72.03 32.31-72.03 72.03v37.16h-83.26c-45.71 0-82.9 37.19-82.9 82.9v420.14c0 45.71 37.19 82.9 82.9 82.9h516.94c45.71 0 82.9-37.19 82.9-82.9V375.1c0-45.72-37.19-82.9-82.9-82.9z m-378.41-37.16c0-9.25 7.52-16.76 16.76-16.76h206.35c9.25 0 16.77 7.52 16.77 16.76v37.16H392.06v-37.16z m-138.53 92.42h516.94c15.24 0 27.63 12.4 27.63 27.63v75.35H225.9V375.1c0-15.24 12.4-27.64 27.63-27.64z m516.94 475.41H253.53c-15.24 0-27.63-12.4-27.63-27.63V505.72h572.2v289.52c0 15.23-12.4 27.63-27.63 27.63z" /></svg>