<?xml version="1.0" standalone="no"?><!DOCTYPE svg PUBLIC "-//W3C//DTD SVG 1.1//EN" "http://www.w3.org/Graphics/SVG/1.1/DTD/svg11.dtd"><svg class="icon" width="128px" height="128.00px" viewBox="0 0 1024 1024" version="1.1" xmlns="http://www.w3.org/2000/svg"><path fill="#333333" d="M759.893333 190.72c-3.413333 0-6.613333-0.853333-9.813333-2.346667C668.373333 146.133333 597.333333 128 512.426667 128c-84.693333 0-164.48 20.266667-237.653334 60.16a21.418667 21.418667 0 0 1-20.48-37.546667C333.866667 107.306667 420.693333 85.333333 512.426667 85.333333c90.88 0 170.24 20.053333 257.28 65.066667 10.453333 5.333333 14.506667 18.346667 9.173333 28.8-3.84 7.253333-11.306667 11.52-18.986667 11.52zM149.333333 414.72c-4.266667 0-8.533333-1.28-12.373333-3.84a21.248 21.248 0 0 1-5.12-29.653333c42.24-59.733333 96.213333-106.666667 160.213333-139.733334 134.186667-69.333333 305.706667-69.546667 440.106667-0.426666 63.786667 32.853333 117.546667 79.36 160 138.666666 6.826667 9.6 4.693333 22.826667-4.906667 29.653334-9.6 6.826667-23.04 4.693333-29.866666-4.906667-38.4-53.76-87.04-96-144.64-125.44-122.453333-62.933333-278.826667-62.72-401.066667 0.426667-57.813333 29.866667-106.666667 72.32-144.853333 126.506666-4.266667 5.76-10.88 8.746667-17.493334 8.746667z m266.88 514.773333c-5.546667 0-10.88-2.133333-15.146666-6.4-36.906667-37.333333-56.96-61.013333-85.76-112.426666-29.44-52.48-45.013333-116.693333-45.013334-185.386667 0-126.72 108.373333-229.973333 241.706667-229.973333s241.706667 103.04 241.706667 229.973333c0 11.733333-9.6 21.333333-21.333334 21.333333s-21.333333-9.6-21.333333-21.333333c0-103.253333-89.173333-187.306667-199.04-187.306667-109.653333 0-199.04 84.053333-199.04 187.306667 0 61.44 13.653333 118.186667 39.466667 164.48 27.52 49.066667 45.866667 70.186667 78.72 103.253333 8.32 8.32 8.32 21.973333-0.213334 30.08-3.84 4.48-9.386667 6.4-14.72 6.4z m305.706667-78.933333c-50.773333 0-95.36-12.8-132.266667-37.76-63.36-43.093333-101.333333-113.066667-101.333333-187.306667 0-11.733333 9.6-21.333333 21.333333-21.333333s21.333333 9.6 21.333334 21.333333c0 59.946667 30.933333 116.693333 82.773333 151.893334 30.08 20.48 65.493333 30.506667 108.16 30.506666 10.24 0 27.52-1.066667 44.586667-4.053333 11.52-2.133333 22.613333 5.76 24.746666 17.28 2.133333 11.52-5.76 22.613333-17.28 24.746667-24.96 4.48-46.08 4.693333-52.053333 4.693333zM635.946667 938.666667c-1.92 0-3.84-0.213333-5.546667-0.853334-68.053333-18.56-112.426667-43.733333-158.506667-89.6a312.362667 312.362667 0 0 1-92.373333-222.72c0-69.333333 58.88-125.653333 131.413333-125.653333 72.533333 0 131.413333 56.32 131.413334 125.653333 0 45.653333 39.893333 82.986667 88.746666 82.986667s88.746667-37.12 88.746667-82.986667c0-160.853333-138.666667-291.626667-309.12-291.626666-121.386667 0-232.106667 67.413333-282.026667 171.946666-16.64 34.56-24.96 74.88-24.96 119.68 0 33.28 2.986667 85.76 28.373334 153.813334 4.053333 11.093333-1.493333 23.253333-12.586667 27.52-11.093333 4.053333-23.253333-1.493333-27.52-12.586667-20.906667-56.106667-31.146667-111.146667-31.146667-168.746667 0-51.2 9.813333-97.706667 29.226667-138.026666 56.96-119.04 182.826667-196.053333 320.426667-196.053334 193.92 0 351.786667 149.973333 351.786666 334.293334 0 69.333333-59.093333 125.653333-131.413333 125.653333s-131.413333-56.32-131.413333-125.653333c0-45.653333-39.893333-82.986667-88.746667-82.986667s-88.746667 37.12-88.746667 82.986667c0 72.746667 28.373333 141.226667 79.786667 192.426666 40.32 40.106667 79.573333 62.293333 139.733333 78.72 11.306667 3.2 18.133333 14.933333 14.933334 26.24-2.56 9.386667-11.093333 15.573333-20.48 15.573334z" /></svg>