<?xml version="1.0" standalone="no"?><!DOCTYPE svg PUBLIC "-//W3C//DTD SVG 1.1//EN" "http://www.w3.org/Graphics/SVG/1.1/DTD/svg11.dtd"><svg class="icon" width="128px" height="128.00px" viewBox="0 0 1024 1024" version="1.1" xmlns="http://www.w3.org/2000/svg"><path fill="#333333" d="M310.603878 916.210526c-28.365651 0-56.731302-8.509695-79.423823-19.855955-31.202216-19.855956-51.058172-45.385042-51.058171-76.587258v-2.836565L211.3241 510.581717c-28.365651-17.019391-51.058172-45.385042-68.077563-82.260387-19.855956-42.548476-28.365651-87.933518-28.365651-133.31856 0-59.567867 19.855956-116.299169 56.731302-158.847645C188.631579 113.462604 211.3241 96.443213 234.01662 85.096953c22.692521-11.34626 51.058172-19.855956 76.587258-19.855956 25.529086 0 53.894737 5.67313 76.587258 19.855956 22.692521 11.34626 45.385042 28.365651 62.404432 51.058172 36.875346 42.548476 56.731302 99.279778 56.731302 158.847645 0 48.221607-8.509695 93.606648-28.365651 133.31856-17.019391 36.875346-39.711911 62.404432-68.077562 82.260387l31.202216 306.349031v2.836565c0 31.202216-17.019391 59.567867-51.058172 76.587258-22.692521 14.182825-51.058172 19.855956-79.423823 19.855955zM245.362881 822.603878c2.836565 17.019391 39.711911 34.038781 68.077562 34.038781 17.019391 0 36.875346-5.67313 48.221607-11.34626 8.509695-5.67313 17.019391-11.34626 17.01939-19.855956l-34.038781-326.204986c0-14.182825 5.67313-28.365651 19.855956-31.202216 28.365651-11.34626 48.221607-39.711911 56.731302-62.404432 14.182825-31.202216 22.692521-68.077562 22.692521-107.789474 0-45.385042-14.182825-87.933518-42.548477-119.135734-25.529086-28.365651-56.731302-45.385042-90.770083-45.385041-34.038781 0-65.240997 17.019391-90.770083 45.385041-25.529086 31.202216-42.548476 73.750693-42.548476 119.135734 0 76.587258 34.038781 147.501385 79.423822 167.357341 11.34626 5.67313 19.855956 19.855956 17.019391 31.202216L245.362881 822.603878z m516.254848 93.606648c-28.365651 0-56.731302-8.509695-79.423823-19.855955-31.202216-17.019391-51.058172-45.385042-51.058172-76.587258v-2.836565l31.202216-303.512465c-19.855956-8.509695-36.875346-25.529086-53.894737-48.221607-28.365651-39.711911-42.548476-87.933518-42.548476-136.155125v-198.559557c0-11.34626 5.67313-22.692521 17.01939-28.365651 8.509695-5.67313 22.692521-5.67313 31.202216 0 8.509695 5.67313 17.019391 17.019391 17.019391 28.365651v195.722992c0 34.038781 11.34626 70.914127 28.365651 96.443213 17.019391 25.529086 34.038781 34.038781 36.875346 34.038782 8.509695 0 17.019391 2.836565 22.692521 11.34626 5.67313 5.67313 8.509695 14.182825 8.509695 25.529086l-31.202216 326.204986c2.836565 17.019391 36.875346 34.038781 65.240998 34.038781 17.019391 0 34.038781-5.67313 48.221606-11.34626 8.509695-5.67313 17.019391-11.34626 17.019391-19.855956L795.65651 493.562327c0-8.509695 2.836565-17.019391 8.509695-25.529086 5.67313-5.67313 14.182825-11.34626 22.692521-11.34626 5.67313 0 22.692521-11.34626 36.875346-34.038782 19.855956-28.365651 28.365651-62.404432 28.365651-96.443213V130.481994c0-11.34626 5.67313-22.692521 14.182825-28.365651 11.34626-5.67313 22.692521-5.67313 31.202217 0 11.34626 5.67313 17.019391 17.019391 14.182825 28.365651v195.722992c0 51.058172-14.182825 99.279778-42.548476 136.155125-17.019391 22.692521-34.038781 39.711911-53.894737 48.221606l31.202216 303.512466v2.836565c0 31.202216-17.019391 59.567867-51.058172 76.587258-19.855956 17.019391-45.385042 22.692521-73.750692 22.69252zM710.559557 360.243767c-17.019391 0-31.202216-14.182825-31.202216-31.202216v-198.559557c0-11.34626 5.67313-22.692521 14.182825-28.365651 11.34626-5.67313 22.692521-5.67313 31.202216 0 11.34626 5.67313 17.019391 17.019391 14.182826 28.365651v195.722992c2.836565 19.855956-11.34626 34.038781-28.365651 34.038781z m99.279778 0c-17.019391 0-31.202216-14.182825-31.202216-31.202216v-198.559557c0-11.34626 5.67313-22.692521 17.019391-28.365651 8.509695-5.67313 22.692521-5.67313 31.202216 0 8.509695 5.67313 17.019391 17.019391 17.01939 28.365651v195.722992c-2.836565 19.855956-17.019391 34.038781-34.038781 34.038781z m0 0" /></svg>