<?xml version="1.0" standalone="no"?><!DOCTYPE svg PUBLIC "-//W3C//DTD SVG 1.1//EN" "http://www.w3.org/Graphics/SVG/1.1/DTD/svg11.dtd"><svg class="icon" width="128px" height="128.00px" viewBox="0 0 1024 1024" version="1.1" xmlns="http://www.w3.org/2000/svg"><path fill="#333333" d="M515.673 611.617L241.377 337.296A197.698 197.698 0 0 1 520.986 57.784l47.865 47.792-51.691 51.69-47.987-47.864A124.595 124.595 0 0 0 292.97 285.605L567.39 559.828z"  /><path fill="#333333" d="M515.722 613.835l-51.423-52.033L742.544 287.19A124.602 124.602 0 0 0 566.17 111.132l-47.865 47.865-51.69-51.691 47.864-47.865a197.713 197.713 0 1 1 279.61 279.61z"  /><path fill="#333333" d="M567.876 400.198a24.371 24.371 0 0 1-17.23-41.602l108.451-108.451a24.371 24.371 0 0 1 34.46 34.46l-108.45 108.452a24.371 24.371 0 0 1-17.231 7.14z m-54.835 403.341a24.371 24.371 0 0 1-7.652-47.523l224.555-74.332a24.388 24.388 0 0 1 15.33 46.305l-224.361 74.283a24.371 24.371 0 0 1-7.872 1.267z m405.096 25.736a24.371 24.371 0 0 1-20.593-37.36l78.913-125.341a24.371 24.371 0 1 1 41.236 25.98l-78.889 125.315a24.371 24.371 0 0 1-20.667 11.406z"  /><path fill="#333333" d="M726.434 913.428a24.371 24.371 0 0 1-9.578-46.792l189.632-80.888a24.376 24.376 0 1 1 19.131 44.843l-189.631 80.888a24.371 24.371 0 0 1-9.554 1.95z m86.079-286.384h-48.742V435.536a59.197 59.197 0 0 1 118.37 0v176.666H833.4V435.536a10.455 10.455 0 0 0-20.886 0z"  /><path fill="#333333" d="M951.72 516.13h-48.742V370.44a10.455 10.455 0 1 0-20.886 0v145.203H833.35V370.441a59.197 59.197 0 1 1 118.37 0z"  /><path fill="#333333" d="M1021.398 686.363h-48.743V432.319a10.455 10.455 0 0 0-20.886 0v148.298h-48.79V432.319a59.197 59.197 0 0 1 118.37 0z m-278.538 16.5h-48.742V489.565a59.197 59.197 0 1 1 118.37 0v179.762h-48.742V489.566a10.455 10.455 0 1 0-20.886 0z"  /><path fill="#333333" d="M782.025 783.262a24.371 24.371 0 0 1-15.159-43.453L917.357 620.39a10.455 10.455 0 1 0-12.99-16.353L754.316 723.115a24.371 24.371 0 1 1-30.293-38.19L874.099 565.8a59.197 59.197 0 0 1 73.6 92.61L797.208 777.828a24.371 24.371 0 0 1-15.183 5.434zM511.774 1024a24.371 24.371 0 0 1-24.371-24.371V784.627a24.371 24.371 0 0 1 48.742 0V999.63A24.371 24.371 0 0 1 511.774 1024z m213.296-1.121a24.371 24.371 0 0 1-24.372-24.371v-108.89a24.371 24.371 0 0 1 48.743 0v108.89a24.371 24.371 0 0 1-24.371 24.37z"  /><path fill="#333333" d="M510.75 803.54a24.371 24.371 0 0 1-7.652-1.244L278.713 727.99a24.388 24.388 0 1 1 15.33-46.305l224.36 74.283a24.371 24.371 0 0 1-7.653 47.523z m-405.023 25.735a24.371 24.371 0 0 1-20.642-11.381L6.122 692.554a24.388 24.388 0 0 1 41.285-25.98l78.914 125.34a24.371 24.371 0 0 1-20.594 37.361z"  /><path fill="#333333" d="M297.454 913.428a24.371 24.371 0 0 1-9.553-1.95L98.27 830.592a24.376 24.376 0 1 1 19.13-44.843l189.632 80.888a24.371 24.371 0 0 1-9.578 46.792z m-37.336-286.384h-48.742V435.536a10.455 10.455 0 0 0-20.886 0v176.666h-48.742V435.536a59.197 59.197 0 0 1 118.37 0z"  /><path fill="#333333" d="M120.837 516.13H72.095V370.44a59.197 59.197 0 0 1 118.37 0v145.203h-48.742V370.441a10.455 10.455 0 0 0-20.886 0z"  /><path fill="#333333" d="M51.209 686.363H2.467V432.319a59.197 59.197 0 0 1 118.37 0v148.298H72.095V432.319a10.455 10.455 0 0 0-20.886 0z m278.537 16.5h-48.742V489.565a10.455 10.455 0 1 0-20.886 0v179.762h-48.742V489.566a59.197 59.197 0 1 1 118.37 0z"  /><path fill="#333333" d="M241.84 783.262a24.371 24.371 0 0 1-15.135-5.288L76.214 658.556a59.197 59.197 0 1 1 73.6-92.61L299.892 685.07a24.371 24.371 0 0 1-30.294 38.044L119.497 603.989a10.455 10.455 0 1 0-12.99 16.353L256.998 739.76a24.371 24.371 0 0 1-15.158 43.454zM512.09 1024a24.371 24.371 0 0 1-24.37-24.371V784.627a24.371 24.371 0 1 1 48.742 0V999.63A24.371 24.371 0 0 1 512.09 1024z m-213.344-1.121a24.371 24.371 0 0 1-24.371-24.371v-108.89a24.371 24.371 0 0 1 48.742 0v108.89a24.371 24.371 0 0 1-24.37 24.37z"  /></svg>