<?xml version="1.0" standalone="no"?><!DOCTYPE svg PUBLIC "-//W3C//DTD SVG 1.1//EN" "http://www.w3.org/Graphics/SVG/1.1/DTD/svg11.dtd"><svg class="icon" width="128px" height="128.00px" viewBox="0 0 1024 1024" version="1.1" xmlns="http://www.w3.org/2000/svg"><path fill="#333333" d="M870.3 520.4c-6.4 0-12.8-2.4-17.7-7.3L521.4 181.9c-4.6-4.6-12.2-4.6-16.8 0L173.4 513.1c-9.8 9.8-25.6 9.8-35.4 0-9.8-9.8-9.8-25.6 0-35.4l331.2-331.2c24.1-24.1 63.4-24.1 87.5 0L888 477.7c9.8 9.8 9.8 25.6 0 35.4-4.9 4.9-11.3 7.3-17.7 7.3z"  /><path fill="#333333" d="M511.3 894.5H297c-57.1 0-103.6-46.5-103.6-103.6V446.8c0-13.8 11.2-25 25-25s25 11.2 25 25v344.1c0 29.5 24 53.6 53.6 53.6h214.3c13.8 0 25 11.2 25 25s-11.2 25-25 25z m295.4-357.4c-13.8 0-25-11.2-25-25v-69.3c0-13.8 11.2-25 25-25s25 11.2 25 25v69.3c0 13.8-11.2 25-25 25zM684.2 895.3c-2.3 0-4.6-0.3-6.9-1-87.1-24.9-147.8-65.6-180.4-120.9-30.4-51.6-25.6-98.9-23-113.7 2.9-25.2 17.3-51.7 39.8-72.8 24.6-23.1 54.7-35.8 84.8-35.8 47.5 0 90.1 28.3 108.6 72 5.4 12.7-0.6 27.4-13.3 32.8-12.7 5.4-27.4-0.6-32.8-13.3-10.7-25.2-35.2-41.5-62.6-41.5-39 0-72.4 39.2-74.9 64.7l-0.3 2.1c-2.4 12.7-17.7 125.5 167.8 178.4 13.3 3.8 21 17.6 17.2 30.9-3.1 10.9-13.1 18.1-24 18.1z"  /><path fill="#333333" d="M684.1 895.3c-10.9 0-20.9-7.2-24-18.1-3.8-13.3 3.9-27.1 17.2-30.9 185.5-53 170.1-165.8 167.8-178.4l-0.3-2.1c-2.6-25.4-35.9-64.7-74.9-64.7-27.4 0-51.9 16.3-62.6 41.5-5.4 12.7-20.1 18.7-32.8 13.3-12.7-5.4-18.7-20-13.3-32.8 18.5-43.7 61.2-72 108.6-72 30.1 0 60.2 12.7 84.8 35.8 22.5 21.1 36.9 47.6 39.8 72.8 2.6 14.8 7.4 62.1-23 113.7-32.6 55.4-93.3 96.1-180.4 120.9-2.3 0.7-4.7 1-6.9 1z"  /></svg>