<?xml version="1.0" standalone="no"?><!DOCTYPE svg PUBLIC "-//W3C//DTD SVG 1.1//EN" "http://www.w3.org/Graphics/SVG/1.1/DTD/svg11.dtd"><svg class="icon" width="128px" height="128.00px" viewBox="0 0 1024 1024" version="1.1" xmlns="http://www.w3.org/2000/svg"><path fill="#333333" d="M644.66 576.225h-2.003V378.296c0-21.202-15.068-38.886-34.524-41.917l0.015-1.26V109.076c0-25.748-18.247-51.097-34.012-51.097 0 0-21.652 0-34.985 3.38-43.248 10.152-119.849 74.408-119.849 136.022v137.743c0 0.374 0.016 0.748 0.016 1.117-19.984 2.529-35.6 20.47-35.6 42.05v197.934l-7.516 0.226c-32.645 0-59.366 29.214-59.366 61.829v286.31c0 32.614 26.716 59.3 59.366 59.3l271.58-0.225c32.65 0 59.362-26.686 59.362-59.295V638.06c0.01-32.62-26.711-61.835-59.362-61.835h-3.123zM450.11 381.942h132.218c10.537 0 19.144 9.026 19.144 20.06v154.184c0 11.038-8.612 20.07-19.144 20.07H446.331c-10.537 0-19.16-9.032-19.16-20.07V402.007c0-11.039 8.623-20.06 19.16-20.06h3.778v-0.005z m90.373-267.766c13.609-2.673 14.52-1.075 14.52-1.075 7.46 0 8.78 9.984 8.78 22.17V306.13c0 9.922 2.812 29.66-9.978 29.66h-77.21c-10.296-1.05-12.38-13.9-12.38-29.66 0 0-0.123-87.742-0.123-110.31-0.005-22.564 64.66-79.345 76.39-81.644z m117.32 788.055c0 17.592-14.408 31.99-32.021 31.99H398.423c-17.608 0-32.02-14.403-32.02-31.99l-0.22-244.541c0-17.603 14.412-31.99 32.02-31.99h227.353c17.613 0 32.026 14.392 32.026 31.99l0.22 244.541z"  /><path fill="#333333" d="M401.715 694.231l0.343 176.579c0.067 31.846 49.444 31.851 49.383 0-0.108-58.855-0.226-117.72-0.349-176.579-0.056-31.841-49.438-31.841-49.377 0z"  /></svg>