<?xml version="1.0" standalone="no"?><!DOCTYPE svg PUBLIC "-//W3C//DTD SVG 1.1//EN" "http://www.w3.org/Graphics/SVG/1.1/DTD/svg11.dtd"><svg class="icon" width="128px" height="128.00px" viewBox="0 0 1024 1024" version="1.1" xmlns="http://www.w3.org/2000/svg"><path fill="#333333" d="M366.624 117.333c119.595 0 216.565 97.003 217.29 216.854a287.477 287.477 0 0 1 26.529-1.216C768.18 332.97 896 461.44 896 619.819c0 158.389-127.819 286.848-285.557 286.848h-78.027a32 32 0 0 1 0-64h78.027C732.768 842.667 832 742.933 832 619.819S732.768 396.97 610.443 396.97c-18.528 0-36.736 2.282-54.336 6.741-22.827 5.792-43.883-14.24-39.232-37.333 2.026-10.048 3.05-20.352 3.05-30.816 0-85.216-68.672-154.23-153.312-154.23-84.608 0-153.28 69.014-153.28 154.24v186.23a32 32 0 1 1-64 0v-186.24c0-120.491 97.248-218.23 217.291-218.23zM180.992 640a32 32 0 0 1 32.341 31.659l1.803 171.008H384a32 32 0 0 1 0 64H183.467a32 32 0 0 1-32-31.659l-2.134-202.667A32 32 0 0 1 180.992 640z" /></svg>