<?xml version="1.0" standalone="no"?><!DOCTYPE svg PUBLIC "-//W3C//DTD SVG 1.1//EN" "http://www.w3.org/Graphics/SVG/1.1/DTD/svg11.dtd"><svg class="icon" width="128px" height="128.00px" viewBox="0 0 1024 1024" version="1.1" xmlns="http://www.w3.org/2000/svg"><path fill="#333333" d="M512 42.666667c259.2 0 469.333333 210.133333 469.333333 469.333333a467.84 467.84 0 0 1-136.064 330.453333l-2.858666 2.837334-5.824 5.674666a8.533333 8.533333 0 0 1-5.930667 2.389334H744.682667a4.266667 4.266667 0 0 1-2.389334-7.786667c2.197333-1.493333 4.053333-2.816 5.610667-3.904C850.496 768.106667 917.333333 647.850667 917.333333 512c0-223.850667-181.482667-405.333333-405.333333-405.333333S106.666667 288.149333 106.666667 512s181.482667 405.333333 405.333333 405.333333h418.133333c4.693333 0 8.533333 3.84 8.533334 8.533334v46.933333a8.533333 8.533333 0 0 1-8.533334 8.533333H520.533333l-0.810666-0.064L512 981.333333C252.8 981.333333 42.666667 771.2 42.666667 512S252.8 42.666667 512 42.666667z m0 576a106.666667 106.666667 0 1 1 0 213.333333 106.666667 106.666667 0 0 1 0-213.333333z m0 64a42.666667 42.666667 0 1 0 0 85.333333 42.666667 42.666667 0 0 0 0-85.333333zM298.666667 405.333333a106.666667 106.666667 0 1 1 0 213.333334 106.666667 106.666667 0 0 1 0-213.333334z m426.666666 0a106.666667 106.666667 0 1 1 0 213.333334 106.666667 106.666667 0 0 1 0-213.333334z m-426.666666 64a42.666667 42.666667 0 1 0 0 85.333334 42.666667 42.666667 0 0 0 0-85.333334z m426.666666 0a42.666667 42.666667 0 1 0 0 85.333334 42.666667 42.666667 0 0 0 0-85.333334zM512 192a106.666667 106.666667 0 1 1 0 213.333333 106.666667 106.666667 0 0 1 0-213.333333z m0 64a42.666667 42.666667 0 1 0 0 85.333333 42.666667 42.666667 0 0 0 0-85.333333z"  /></svg>