<?xml version="1.0" standalone="no"?><!DOCTYPE svg PUBLIC "-//W3C//DTD SVG 1.1//EN" "http://www.w3.org/Graphics/SVG/1.1/DTD/svg11.dtd"><svg class="icon" width="128px" height="128.00px" viewBox="0 0 1024 1024" version="1.1" xmlns="http://www.w3.org/2000/svg"><path fill="#333333" d="M341.3 793.2H184.7c-14.7 0-26.7-13.5-26.7-30V260.8c0-16.5 12-30 26.7-30h612c14.7 0 26.7 13.5 26.7 30v64.9c0 16.6 13.4 30 30 30s30-13.4 30-30v-64.9c0-49.6-38.9-90-86.7-90h-612c-47.8 0-86.7 40.4-86.7 90v502.4c0 49.6 38.9 90 86.7 90h156.7c16.6 0 30-13.4 30-30s-13.5-30-30.1-30zM896 615.6c-11.7-11.7-30.7-11.7-42.4 0L609.2 859.9 488.1 738.8c-11.7-11.7-30.7-11.7-42.4 0s-11.7 30.7 0 42.4L588 923.6c5.6 5.6 13.3 8.8 21.2 8.8s15.6-3.2 21.2-8.8L896 658c11.7-11.7 11.7-30.7 0-42.4zM512 418.4c13.3 0 24.6 8.6 28.5 20.6h5.5l102.5-102.5c11.7-11.7 11.7-30.7 0-42.4s-30.7-11.7-42.4 0l-94 94-94-94c-11.7-11.7-30.7-11.7-42.4 0s-11.7 30.7 0 42.4L478 439h5.5c4-12 15.2-20.6 28.5-20.6zM482 687c0 16.6 13.4 30 30 30s30-13.4 30-30v-86h-60v86z m0-188h60v42h-60z m30-80.6c-13.3 0-24.6 8.6-28.5 20.6h57c-3.9-12-15.2-20.6-28.5-20.6z m-29.6 25L478 439H352.7c-16.6 0-30 13.4-30 30s13.4 30 30 30H482v-50.6c0-1.7 0.2-3.4 0.4-5z m59.6 5V499h129.3c16.6 0 30-13.4 30-30s-13.4-30-30-30H546l-4.4 4.4c0.3 1.6 0.4 3.3 0.4 5z m-58.5-9.4H478l4.4 4.4c0.3-1.5 0.6-3 1.1-4.4z m58.1 4.4l4.4-4.4h-5.5c0.5 1.4 0.8 2.9 1.1 4.4z m0.4 5c0-1.7-0.1-3.3-0.4-5l-8.4 8.4c-5.9 5.9-13.5 8.8-21.2 8.8s-15.4-2.9-21.2-8.8l-8.4-8.4c-0.3 1.6-0.4 3.3-0.4 5V499h60v-50.6z m-58.5-9.4c-0.5 1.4-0.8 2.9-1.1 4.4l8.4 8.4c5.9 5.9 13.5 8.8 21.2 8.8s15.4-2.9 21.2-8.8l8.4-8.4c-0.3-1.5-0.6-3-1.1-4.4h-57z m187.8 162c16.6 0 30-13.4 30-30s-13.4-30-30-30H542v60h129.3z m-318.6-60c-16.6 0-30 13.4-30 30s13.4 30 30 30H482v-60H352.7z m129.3 0h60v60h-60z" /></svg>