<?xml version="1.0" standalone="no"?><!DOCTYPE svg PUBLIC "-//W3C//DTD SVG 1.1//EN" "http://www.w3.org/Graphics/SVG/1.1/DTD/svg11.dtd"><svg class="icon" width="128px" height="128.00px" viewBox="0 0 1024 1024" version="1.1" xmlns="http://www.w3.org/2000/svg"><path fill="#333333" d="M360 466.7c-13.8 0-25 11.2-25 25s11.2 25 25 25h79.5v50.8c0 13.8 11.2 25 25 25s25-11.2 25-25v-50.8h80.6c13.8 0 25-11.2 25-25s-11.2-25-25-25h-80.6v-32.3h80.6c13.8 0 25-11.2 25-25s-11.2-25-25-25h-37.9l36.6-75.3c6-12.4 0.9-27.4-11.6-33.4-12.4-6-27.4-0.9-33.4 11.6l-47.2 97.1h-28.2l-47.2-97.1c-6-12.4-21-17.6-33.4-11.6-12.4 6-17.6 21-11.6 33.4l36.6 75.3H360c-13.8 0-25 11.2-25 25s11.2 25 25 25h79.5v32.3H360z"  /><path fill="#333333" d="M913.1 501.3c-0.1-13.8-11.2-24.9-25-24.9h-59.7c0.4-7.2 0.7-14.4 0.7-21.6 0-48.7-9.5-95.9-28.4-140.4-18.2-43-44.2-81.5-77.3-114.7-33.1-33.1-71.7-59.1-114.7-77.3C564.2 103.6 517 94 468.3 94s-95.9 9.5-140.4 28.4c-43 18.2-81.5 44.2-114.7 77.3-33.1 33.1-59.1 71.7-77.3 114.7-18.8 44.5-28.4 91.7-28.4 140.4 0 104.7 44.8 202.5 122 270.5-45.1 11.2-78.6 52-78.6 100.5 0 59.7 48.6 108.2 108.2 108.2h259.1c4.5 0 8.9-1.2 12.8-3.5l178.9-106.3h179.7c6.7 0 13-2.7 17.7-7.4 4.7-4.7 7.3-11.1 7.3-17.8l-1.5-297.7z m-755.6-46.4c0-171.4 139.4-310.8 310.8-310.8s310.8 139.4 310.8 310.8c0 7.2-0.3 14.4-0.8 21.6H657.8c-6.4 0-12.5 2.4-17.1 6.8L509.3 607c-0.5 0.4-1.1 0.9-1.6 1.4l-104.3 98.4-0.5 0.5-16 15.1h-80.7c-1.8-2.5-4.1-4.8-6.8-6.6-88.9-57.7-141.9-155.2-141.9-260.9z m545.4 319.4c-4.5 0-8.9 1.2-12.8 3.5L511.3 884.1H259.1c-32.1 0-58.2-26.1-58.2-58.2 0-29.5 24-53.5 53.5-53.5h131.5c1.7 5.5 4.1 10.9 7.3 16 9.8 15.5 25.8 26.1 43.9 29.2 3.5 0.6 7.1 0.9 10.6 0.9 14.6 0 28.9-4.9 40.4-14.2l138.8-111c10.8-8.6 12.5-24.4 3.9-35.1-8.6-10.8-24.4-12.5-35.1-3.9l-138.8 111c-4.4 3.5-9.1 3.4-11.5 3-2.4-0.4-6.9-1.8-9.9-6.6-3.7-5.8-2.8-13.4 2.1-18.2l230.3-216.9h195.4l1.2 247.9H702.9z"  /></svg>