<?xml version="1.0" standalone="no"?><!DOCTYPE svg PUBLIC "-//W3C//DTD SVG 1.1//EN" "http://www.w3.org/Graphics/SVG/1.1/DTD/svg11.dtd"><svg class="icon" width="128px" height="128.00px" viewBox="0 0 1024 1024" version="1.1" xmlns="http://www.w3.org/2000/svg"><path fill="#333333" d="M146.645 596.01a21.717 21.717 0 0 1-8.789-7.06l-69.632-95.083a21.824 21.824 0 1 1 35.2-25.792l27.69 37.802c8.086-221.845 190.486-399.21 414.294-399.21C774.4 106.667 960 292.267 960 521.237S774.4 935.83 545.43 935.83c-147.883 0-282.24-78.08-356.48-202.837a21.824 21.824 0 1 1 37.482-22.315 370.688 370.688 0 0 0 318.997 181.504c204.864 0 370.923-166.08 370.923-370.944S750.293 150.315 545.429 150.315 174.485 316.373 174.485 521.237c0 17.622 1.216 35.072 3.627 52.267a21.824 21.824 0 0 1-31.467 22.507z m420.587-74.773v65.472h152.747a21.824 21.824 0 0 1 0 43.627H567.232v130.923a21.824 21.824 0 1 1-43.627 0V630.336H370.86a21.824 21.824 0 0 1 0-43.627h152.746v-65.472H370.86a21.824 21.824 0 0 1 0-43.626H511.06L359.125 352.619a21.824 21.824 0 1 1 27.712-33.707l159.638 131.307 159.658-131.286a21.824 21.824 0 1 1 27.734 33.707L581.909 477.61H720a21.824 21.824 0 0 1 0 43.627H567.253z" /></svg>