<?xml version="1.0" standalone="no"?><!DOCTYPE svg PUBLIC "-//W3C//DTD SVG 1.1//EN" "http://www.w3.org/Graphics/SVG/1.1/DTD/svg11.dtd"><svg class="icon" width="128px" height="128.00px" viewBox="0 0 1024 1024" version="1.1" xmlns="http://www.w3.org/2000/svg"><path fill="#333333" d="M848.533333 361.386667V275.68a168.16 168.16 0 0 0-168.16-168.16H343.626667A168.106667 168.106667 0 0 0 175.466667 275.68v85.706667a1.066667 1.066667 0 0 1-0.693334 1.013333A106.08 106.08 0 0 0 106.666667 461.386667v284.32a106.133333 106.133333 0 0 0 106.133333 106.133333h26.133333a5.333333 5.333333 0 0 1 5.333334 5.333333V912a5.333333 5.333333 0 0 0 5.333333 5.333333h64a5.333333 5.333333 0 0 0 5.333333-5.333333v-54.826667a5.333333 5.333333 0 0 1 5.333334-5.333333h375.466666a5.333333 5.333333 0 0 1 5.333334 5.333333V912a5.333333 5.333333 0 0 0 5.333333 5.333333h64a5.333333 5.333333 0 0 0 5.333333-5.333333v-54.826667a5.333333 5.333333 0 0 1 5.333334-5.333333h26.133333a106.133333 106.133333 0 0 0 106.133333-106.133333V461.386667A106.026667 106.026667 0 0 0 849.226667 362.666667a1.12 1.12 0 0 1-0.693334-1.28z m-504.906666-179.2h336.746666a93.493333 93.493333 0 0 1 93.493334 93.493333v85.706667a1.066667 1.066667 0 0 1-0.533334 1.28 106.08 106.08 0 0 0-68.266666 98.72V544a1.013333 1.013333 0 0 1-1.813334 0.693333 141.493333 141.493333 0 0 0-102.72-44H423.466667a141.493333 141.493333 0 0 0-102.72 44 1.013333 1.013333 0 0 1-1.813334-0.693333V461.386667A105.973333 105.973333 0 0 0 250.666667 362.666667a1.12 1.12 0 0 1-0.64-1.013334V275.68a93.493333 93.493333 0 0 1 93.6-93.493333z m318.133333 457.386666H362.24a5.333333 5.333333 0 0 1-5.333333-6.08 67.2 67.2 0 0 1 66.506666-58.133333h177.066667a67.2 67.2 0 0 1 66.506667 58.133333 5.333333 5.333333 0 0 1-5.226667 6.08z m180.906667 106.133334a31.466667 31.466667 0 0 1-31.466667 31.466666H212.8a31.466667 31.466667 0 0 1-31.466667-31.466666V462.453333a32 32 0 0 1 27.306667-32 31.52 31.52 0 0 1 35.626667 31.2v247.52a5.333333 5.333333 0 0 0 5.333333 5.333334h524.8a5.333333 5.333333 0 0 0 5.333333-5.333334V462.453333a32 32 0 0 1 27.36-32 31.52 31.52 0 0 1 35.573334 30.933334z" /></svg>