<?xml version="1.0" standalone="no"?><!DOCTYPE svg PUBLIC "-//W3C//DTD SVG 1.1//EN" "http://www.w3.org/Graphics/SVG/1.1/DTD/svg11.dtd"><svg class="icon" width="128px" height="128.00px" viewBox="0 0 1024 1024" version="1.1" xmlns="http://www.w3.org/2000/svg"><path fill="#333333" d="M517.482952 242.429869c66.857412 0 121.235934-54.378522 121.235934-121.214934C638.697886 54.378522 584.298365 0 517.482952 0c-66.837413 0-121.214935 54.378522-121.214935 121.214935 0 66.836413 54.377522 121.214935 121.214935 121.214934z m0-199.721244c43.305619 0 78.48431 35.22169 78.48431 78.48531 0 43.28462-35.156691 78.48431-78.48431 78.48431-43.28562 0-78.48531-35.22069-78.48531-78.48431s35.199691-78.48531 78.48531-78.48531zM817.000319 932.386805L613.716106 638.734386V497.23263l38.463662 38.463662a20.017824 20.017824 0 0 0 5.546951 4.010964l59.540477 29.780739c8.490925 4.245963 17.749844 6.421944 27.050762 6.421943 7.871931 0 15.700862-1.514987 23.082797-4.629959 16.255857-6.697941 28.671748-20.095823 34.239699-36.713677 9.364918-28.373751-3.583969-59.839474-30.293733-73.237357l-64.489434-32.212717-96.70315-145.065725c-0.426996-0.617995-1.045991-0.937992-1.493987-1.492986-0.895992-1.10999-1.855984-2.047982-2.964973-2.964974-1.10999-0.895992-2.21898-1.663985-3.45597-2.32598-1.12999-0.617995-2.28298-1.065991-3.540969-1.449987a21.505811 21.505811 0 0 0-4.373962-0.895992c-0.681994-0.063999-1.279989-0.405996-1.961982-0.405997H442.58061c-4.991956 0-9.833914 1.749985-13.67388 4.949957L279.127047 404.284447a21.269813 21.269813 0 0 0-5.417953 6.869939l-61.930455 123.858912c-12.436891 24.789782-2.32498 55.104516 22.527802 67.584406 22.6988 11.3919 52.671537 2.623977 65.684422-19.135832l57.898491-96.447152 63.359444-31.679722v186.664359L377.281184 773.860198H255.362256c-32.404715 0-58.794483 26.345768-58.794484 58.793484s26.367768 58.858483 58.794484 58.858482h212.179135c6.719941 0 13.077885-3.220972 17.06685-8.596924l62.911447-83.818263 177.47044 204.7772c11.049903 12.799888 27.114762 20.116823 44.031613 20.116823 15.615863 0 30.292734-6.036947 41.258637-17.10985 19.967825-19.924825 22.8048-51.24155 6.719941-74.494345zM682.6865 464.827915l69.567388 34.729694c7.764932 3.925965 11.626898 13.162884 8.809923 21.461812-2.217981 6.655942-7.209937 9.578916-10.004912 10.729905-2.729976 1.259989-8.404926 2.645977-14.676871-0.489995l-56.447504-28.202752-66.218418-66.196419v-70.378381l60.778466 91.114199c2.026982 3.071973 4.927957 5.567951 8.191928 7.231937zM456.875484 848.76054H255.362256c-8.874922 0-16.063859-7.209937-16.063859-16.084858s7.189937-16.063859 16.063859-16.063859h137.299793c9.194919 0 17.365847-5.930948 20.266822-14.634872l38.079665-114.217996 67.882403 78.314312-62.015455 82.687273z m323.23916 127.934876c-2.964974 2.943974-6.86894 4.56496-11.092903 4.56496-2.666977 0-7.700932-0.703994-11.796896-5.396953l-293.267423-338.407026-0.021-216.745095a21.391812 21.391812 0 0 0-10.132911-18.17584 21.388812 21.388812 0 0 0-20.778817-0.938992l-99.839122 49.940561c-3.647968 1.813984-6.676941 4.650959-8.767923 8.127929l-61.098463 101.781105c-2.559978 4.287962-6.996939 4.372962-9.919913 2.964974-3.753967-1.855984-5.289954-6.506943-3.41297-10.23991l59.946473-119.848946 140.392766-116.991972h120.681939V645.434327c0 4.329962 1.343988 8.575925 3.796967 12.159893l207.12418 299.090372c4.287962 6.271945 3.519969 14.677871-1.813984 20.010824z" /></svg>