<?xml version="1.0" standalone="no"?><!DOCTYPE svg PUBLIC "-//W3C//DTD SVG 1.1//EN" "http://www.w3.org/Graphics/SVG/1.1/DTD/svg11.dtd"><svg class="icon" width="128px" height="128.00px" viewBox="0 0 1024 1024" version="1.1" xmlns="http://www.w3.org/2000/svg"><path fill="#333333" d="M213.494 258.35h597.012c49.425 0 89.429 40.015 89.429 89.536v328.228c0 49.402-40.131 89.536-89.43 89.536h-597.01c-49.426 0-89.43-40.015-89.43-89.536V347.886c0-49.402 40.131-89.536 89.43-89.536zM64.384 676.114c0 82.479 66.72 149.218 149.11 149.218h597.012c82.26 0 149.11-66.856 149.11-149.218V347.886c0-82.479-66.72-149.218-149.11-149.218H213.494c-82.26 0-149.11 66.856-149.11 149.218v328.228z"  /><path fill="#333333" d="M601.523 676.126c0 16.48 13.36 29.841 29.841 29.841s29.842-13.36 29.842-29.84V347.873c0-16.48-13.36-29.841-29.842-29.841-16.48 0-29.84 13.36-29.84 29.84v328.253zM482.159 616.444c0 16.48 13.36 29.841 29.841 29.841 16.48 0 29.841-13.36 29.841-29.841v-268.57c0-16.48-13.36-29.841-29.841-29.841-16.48 0-29.841 13.36-29.841 29.84v268.57zM362.794 556.762c0 16.48 13.36 29.84 29.842 29.84 16.48 0 29.84-13.36 29.84-29.84V347.874c0-16.48-13.36-29.841-29.84-29.841-16.481 0-29.842 13.36-29.842 29.84v208.889zM303.112 959.617c57.683 0 104.444-46.761 104.444-104.444h-59.682c0 24.721-20.04 44.762-44.762 44.762-24.721 0-44.762-20.041-44.762-44.762h-59.682c0 57.683 46.761 104.444 104.444 104.444zM720.888 959.617c57.683 0 104.444-46.761 104.444-104.444H765.65c0 24.721-20.041 44.762-44.762 44.762s-44.762-20.041-44.762-44.762h-59.682c0 57.683 46.761 104.444 104.444 104.444zM676.126 198.668v-37.301c0-20.745-16.715-37.302-37.335-37.302H385.209c-20.606 0-37.335 16.7-37.335 37.302v37.301m-59.682 0v-37.301c0-53.573 43.46-96.984 97.017-96.984h253.582c53.583 0 97.017 43.28 97.017 96.984v37.301H288.192z"  /></svg>